<svg width="150" height="148" viewBox="0 0 150 148" fill="none" xmlns="http://www.w3.org/2000/svg">
<g clip-path="url(#clip0_40_11)">
<path fill-rule="evenodd" clip-rule="evenodd" d="M75 0C116.421 0 150 33.1309 150 74C150 114.869 116.421 148 75 148C33.5787 148 0 114.869 0 74C0 33.1309 33.5787 0 75 0ZM75 44.77C64.8518 44.77 56.625 52.8871 56.625 62.9C56.625 69.2209 59.9043 74.7851 64.875 78.0299V93.61C64.875 99.1273 69.4081 103.6 75 103.6C80.5919 103.6 85.125 99.1273 85.125 93.61V78.0299C90.0957 74.7851 93.375 69.2209 93.375 62.9C93.375 52.8871 85.1482 44.77 75 44.77Z" fill="#1F3076"/>
</g>
<defs>
<clipPath id="clip0_40_11">
<rect width="150" height="148" fill="white"/>
</clipPath>
</defs>
</svg>
